<?xml version="1.0" encoding="utf-8"?>
<!-- Generator: Adobe Illustrator 26.3.1, SVG Export Plug-In . SVG Version: 6.00 Build 0)  -->
<svg version="1.1" id="Слой_1" xmlns="http://www.w3.org/2000/svg" xmlns:xlink="http://www.w3.org/1999/xlink" x="0px" y="0px"
	 viewBox="0 0 156.7874908 34.0157471" style="enable-background:new 0 0 156.7874908 34.0157471;" xml:space="preserve">
<style type="text/css">
	.st0{fill:url(#SVGID_1_);}
	.st1{fill:#FFFFFF;}
</style>
<g>
	<g>
		
			<linearGradient id="SVGID_1_" gradientUnits="userSpaceOnUse" x1="55.8325691" y1="-22.0692234" x2="100.9549179" y2="56.0849724">
			<stop  offset="0" style="stop-color:#2AC3FF"/>
			<stop  offset="1" style="stop-color:#96DA45"/>
		</linearGradient>
		<path class="st0" d="M138.1815796,32.2687454H18.6058998c-8.2842703,0-14.999999-6.7157307-14.999999-15.0000019v-0.52174
			c0-8.2842703,6.7157288-14.999999,14.999999-14.999999h119.5756836c8.2842712,0,15,6.7157288,15,14.999999v0.52174
			C153.1815796,25.5530148,146.4658508,32.2687454,138.1815796,32.2687454z"/>
	</g>
	<g>
		<path class="st1" d="M40.0608559,11.8282938h1.7919922v6.9580069l5.2636719-6.9580069h1.6943359v9.7998037h-1.7919922v-6.9433584
			l-5.2636719,6.9433584h-1.6943359V11.8282938z"/>
		<path class="st1" d="M58.0510902,19.3605194h-4.9003906l-0.9658203,2.2675781h-1.8759766l4.4101562-9.7998037h1.7919922
			l4.4238281,9.7998037h-1.9042969L58.0510902,19.3605194z M57.4485512,17.932785l-1.8476562-4.2841787l-1.8339844,4.2841787
			H57.4485512z"/>
		<path class="st1" d="M64.1204224,21.1173553c-0.7988243-0.4335938-1.4238243-1.0332031-1.8759727-1.7988281
			c-0.453125-0.765625-0.6796875-1.6289062-0.6796875-2.5898438c0-0.9619131,0.2285156-1.8251944,0.6865234-2.5908194
			c0.4570312-0.7646484,1.0849609-1.3642578,1.8828087-1.7988281c0.7978516-0.4335938,1.6914062-0.6503906,2.6806641-0.6503906
			c0.8027344,0,1.5351562,0.1396484,2.1982422,0.4199219c0.6621094,0.2792969,1.2226562,0.6855469,1.6796875,1.2177734
			l-1.1757812,1.1064453c-0.7089844-0.765625-1.5820312-1.1484375-2.6181641-1.1484375
			c-0.671875,0-1.2734375,0.1474609-1.8056641,0.4414062s-0.9472656,0.7021484-1.2460899,1.2246094
			c-0.2988281,0.5224609-0.4482422,1.1152334-0.4482422,1.7783194c0,0.6621094,0.1494141,1.2548828,0.4482422,1.7773438
			c0.2988243,0.5234375,0.7138634,0.9316406,1.2460899,1.2255859s1.1337891,0.4404297,1.8056641,0.4404297
			c1.0361328,0,1.9091797-0.3867188,2.6181641-1.1621094l1.1757812,1.1201172
			c-0.4570312,0.5322266-1.0195312,0.9384766-1.6865234,1.21875c-0.6679688,0.2792969-1.4023438,0.4199219-2.2050781,0.4199219
			C65.8118286,21.7687225,64.9182739,21.5509491,64.1204224,21.1173553z"/>
		<path class="st1" d="M84.6643677,11.8282938l-4.2558594,7.9101553c-0.3730469,0.7001953-0.8193359,1.2246094-1.3369141,1.5751953
			c-0.5185547,0.3496094-1.0800781,0.5244141-1.6875,0.5244141c-0.4853516,0-0.9658203-0.1025391-1.4414062-0.3076172
			l0.4482422-1.4277344c0.3818359,0.1210938,0.6992188,0.1816406,0.9511719,0.1816406
			c0.5878906,0,1.0732422-0.3027344,1.4560547-0.9101562l0.1542969-0.2382812l-3.90625-7.3076162h1.9462891l2.8984375,5.7539053
			l2.9814453-5.7539053H84.6643677z"/>
		<path class="st1" d="M85.9387817,11.8282938h1.7919922v6.9580069l5.2636719-6.9580069h1.6943359v9.7998037h-1.7919922v-6.9433584
			l-5.2646484,6.9433584h-1.6933594V11.8282938z"/>
		<path class="st1" d="M99.2590942,21.1173553c-0.7978516-0.4335938-1.4238281-1.0332031-1.8759766-1.7988281
			c-0.453125-0.765625-0.6787109-1.6289062-0.6787109-2.5898438c0-0.9619131,0.2285156-1.8251944,0.6855469-2.5908194
			c0.4570312-0.7646484,1.0849609-1.3642578,1.8828125-1.7988281c0.7988281-0.4335938,1.6923828-0.6503906,2.6816406-0.6503906
			c0.8027344,0,1.5351562,0.1396484,2.1972656,0.4199219c0.6630859,0.2792969,1.2226562,0.6855469,1.6806641,1.2177734
			l-1.1757812,1.1064453c-0.7099609-0.765625-1.5820312-1.1484375-2.6181641-1.1484375
			c-0.671875,0-1.2744141,0.1474609-1.8066406,0.4414062c-0.53125,0.2939453-0.9472656,0.7021484-1.2460938,1.2246094
			s-0.4472656,1.1152334-0.4472656,1.7783194c0,0.6621094,0.1484375,1.2548828,0.4472656,1.7773438
			c0.2988281,0.5234375,0.7148438,0.9316406,1.2460938,1.2255859c0.5322266,0.2939453,1.1347656,0.4404297,1.8066406,0.4404297
			c1.0361328,0,1.9082031-0.3867188,2.6181641-1.1621094l1.1757812,1.1201172
			c-0.4580078,0.5322266-1.0205078,0.9384766-1.6875,1.21875c-0.6669922,0.2792969-1.4023438,0.4199219-2.2050781,0.4199219
			C100.9505005,21.7687225,100.0569458,21.5509491,99.2590942,21.1173553z"/>
		<path class="st1" d="M116.2063599,11.8282938v9.7998037h-1.7919922v-8.2597647h-5.0820312v8.2597647h-1.7919922v-9.7998037
			H116.2063599z"/>
	</g>
</g>
</svg>
