<?xml version="1.0" encoding="utf-8"?>
<!-- Generator: Adobe Illustrator 26.3.1, SVG Export Plug-In . SVG Version: 6.00 Build 0)  -->
<svg version="1.1" id="Слой_1" xmlns="http://www.w3.org/2000/svg" xmlns:xlink="http://www.w3.org/1999/xlink" x="0px" y="0px"
	 viewBox="0 0 25.5118103 25.5118103" style="enable-background:new 0 0 25.5118103 25.5118103;" xml:space="preserve">
<style type="text/css">
	.st0{fill:#3763EB;}
</style>
<g>
	<path class="st0" d="M12.7559052,21.8608856c5.0205078,0,9.1049805-4.0839844,9.1049805-9.1044922
		s-4.0844727-9.1054688-9.1049805-9.1054688s-9.1049805,4.0849609-9.1049805,9.1054688S7.7353978,21.8608856,12.7559052,21.8608856z
		 M12.7559052,5.1509252c4.1933594,0,7.6049805,3.4121089,7.6049805,7.6054683s-3.4116211,7.6044922-7.6049805,7.6044922
		s-7.60498-3.4111328-7.60498-7.6044922S8.5625458,5.1509252,12.7559052,5.1509252z"/>
	<path class="st0" d="M12.7561493,17.4829559c2.5976562,0,4.7114258-2.1132812,4.7114258-4.7109375
		c0-2.5986328-2.1137695-4.7119141-4.7114258-4.7119141c-2.5981445,0-4.7119141,2.1132812-4.7119141,4.7119141
		C8.0442352,15.3696747,10.1580048,17.4829559,12.7561493,17.4829559z M12.7561493,9.5601044
		c1.7709961,0,3.2114258,1.4404297,3.2114258,3.2119141c0,1.7705078-1.4404297,3.2109375-3.2114258,3.2109375
		s-3.2119141-1.4404297-3.2119141-3.2109375C9.5442352,11.0005341,10.9851532,9.5601044,12.7561493,9.5601044z"/>
</g>
</svg>
