<?xml version="1.0" encoding="utf-8"?>
<!-- Generator: Adobe Illustrator 26.3.1, SVG Export Plug-In . SVG Version: 6.00 Build 0)  -->
<svg version="1.1" id="Слой_1" xmlns="http://www.w3.org/2000/svg" xmlns:xlink="http://www.w3.org/1999/xlink" x="0px" y="0px"
	 viewBox="0 0 25.5118103 25.5118103" style="enable-background:new 0 0 25.5118103 25.5118103;" xml:space="preserve">
<style type="text/css">
	.st0{fill:#3763EB;}
</style>
<path class="st0" d="M22.6362953,18.741745v-3.7958984c0-4.921875-4.0043945-8.9257812-8.9262695-8.9257812
	s-8.9262695,4.0039058-8.9262695,8.9257812v1.34375l-1.7211916,1.9570312
	c-0.1948242,0.2207031-0.2416992,0.5351562-0.1206055,0.8037109c0.121582,0.2685547,0.3891602,0.4414062,0.6835938,0.4414062
	h18.2607422C22.3003578,19.491745,22.6362953,19.1558075,22.6362953,18.741745z M21.1362953,17.991745H5.284245l0.8125-0.9238281
	c0.1206055-0.1367188,0.1870117-0.3125,0.1870117-0.4951172v-1.6269531c0-4.0947266,3.3315425-7.4257808,7.4262691-7.4257808
	s7.4262695,3.3310542,7.4262695,7.4257808V17.991745z"/>
</svg>
