<?xml version="1.0" encoding="utf-8"?>
<!-- Generator: Adobe Illustrator 26.3.1, SVG Export Plug-In . SVG Version: 6.00 Build 0)  -->
<svg version="1.1" id="Слой_1" xmlns="http://www.w3.org/2000/svg" xmlns:xlink="http://www.w3.org/1999/xlink" x="0px" y="0px"
	 viewBox="0 0 25.5118103 25.5118103" style="enable-background:new 0 0 25.5118103 25.5118103;" xml:space="preserve">
<style type="text/css">
	.st0{fill:none;}
	.st1{fill:#3763EB;}
</style>
<g>
	<path class="st0" d="M11.2266083,17.7168427c0,0.2592773,0.2109375,0.4702148,0.4707031,0.4702148h1.8125
		c0.3383789,0,0.6137695-0.2749023,0.6137695-0.6132812c0-0.8725586,0.3452148-1.7041016,0.972168-2.3510742
		c0.6132812-0.6328125,0.9506836-1.465332,0.9506836-2.3447266c0-0.9321289-0.371582-1.800293-1.0458984-2.4443359
		c-0.6347656-0.605957-1.4580078-0.9345703-2.3320312-0.9345703c-0.0541992,0-0.1079102,0.0009766-0.1621094,0.003418
		c-1.7661133,0.0820312-3.2094727,1.5888672-3.2177734,3.359375c-0.0043945,0.8945312,0.3398438,1.7392578,0.9682617,2.3789062
		c0.6254883,0.6357422,0.9697266,1.4506836,0.9697266,2.2944336V17.7168427z"/>
	<path class="st0" d="M11.9697723,19.7207489c0,0.3881836,0.315918,0.7041016,0.7045898,0.7041016
		c0.3881836,0,0.7041016-0.315918,0.7041016-0.7041016v-0.0336914h-1.4086914V19.7207489z"/>
	<path class="st1" d="M16.0366669,9.3491669c-0.9736328-0.9296875-2.246582-1.4086909-3.5996094-1.3447266
		c-2.5512695,0.1181641-4.63623,2.2939453-4.648437,4.8505859c-0.0063477,1.2929688,0.4907222,2.5136719,1.3989253,3.4375
		c0.3476562,0.3535156,0.5390625,0.7949219,0.5390625,1.2426758v0.1816406c0,0.6201172,0.2938232,1.1674805,0.7431641,1.5288696
		v0.4750366c0,1.215332,0.9887695,2.2041016,2.2045898,2.2041016c1.215332,0,2.2041016-0.9887695,2.2041016-2.2041016v-0.5508423
		c0.4521484-0.388916,0.7451172-0.9592285,0.7451172-1.6049194c0-0.4716797,0.1953125-0.9326172,0.5493164-1.2983398
		c0.8857422-0.9140625,1.3735352-2.1176758,1.3735352-3.3886719C17.5464325,11.5322723,17.0102997,10.2788544,16.0366669,9.3491669z
		 M13.3784637,19.7207489c0,0.3881836-0.315918,0.7041016-0.7041016,0.7041016c-0.3886719,0-0.7045898-0.315918-0.7045898-0.7041016
		v-0.0336914h1.4086914V19.7207489z M15.0957489,15.222702c-0.6269531,0.6469727-0.972168,1.4785156-0.972168,2.3510742
		c0,0.3383789-0.2753906,0.6132812-0.6137695,0.6132812h-1.8125c-0.2597656,0-0.4707031-0.2109375-0.4707031-0.4702148V17.535202
		c0-0.84375-0.3442383-1.6586914-0.9697266-2.2944336c-0.628418-0.6396484-0.9726562-1.484375-0.9682617-2.3789062
		c0.0083008-1.7705078,1.4516602-3.2773438,3.2177734-3.359375c0.0541992-0.0024414,0.1079102-0.003418,0.1621094-0.003418
		c0.8740234,0,1.6972656,0.3286133,2.3320312,0.9345703c0.6743164,0.644043,1.0458984,1.512207,1.0458984,2.4443359
		C16.0464325,13.75737,15.7090302,14.5898895,15.0957489,15.222702z"/>
	<path class="st1" d="M5.9834447,13.6460419c0.4140625,0,0.75-0.3359375,0.75-0.75s-0.3359375-0.75-0.75-0.75H4.1953588
		c-0.4140625,0-0.75,0.3359375-0.75,0.75s0.3359375,0.75,0.75,0.75H5.9834447z"/>
	<path class="st1" d="M19.5278778,12.1460419c-0.4140625,0-0.75,0.3359375-0.75,0.75s0.3359375,0.75,0.75,0.75h1.7885742
		c0.4140625,0,0.75-0.3359375,0.75-0.75s-0.3359375-0.75-0.75-0.75H19.5278778z"/>
	<path class="st1" d="M13.4150848,6.1255345V4.3369603c0-0.4140625-0.3359375-0.75-0.75-0.75s-0.75,0.3359375-0.75,0.75v1.7885742
		c0,0.4140625,0.3359375,0.75,0.75,0.75S13.4150848,6.539597,13.4150848,6.1255345z"/>
	<path class="st1" d="M8.397995,7.4814916L7.2051244,6.2886205c-0.2929688-0.2929688-0.7675781-0.2929688-1.0605469,0
		s-0.2929688,0.7675781,0,1.0605469L7.3374486,8.542038C7.483933,8.6885223,7.6758275,8.7617645,7.867722,8.7617645
		c0.1918941,0,0.3837886-0.0732422,0.530273-0.2197266C8.6909637,8.2490692,8.6909637,7.7744603,8.397995,7.4814916z"/>
	<path class="st1" d="M18.0845184,8.628952l1.2802734-1.2797847c0.2929688-0.2924805,0.2929688-0.7675781,0-1.0605469
		s-0.7675781-0.2929688-1.0605469,0l-1.2802734,1.2797852c-0.2929688,0.2924805-0.2929688,0.7675776,0,1.0605464
		c0.1464844,0.1464844,0.3383789,0.2197266,0.5302734,0.2197266S17.9380341,8.7754364,18.0845184,8.628952z"/>
</g>
</svg>
