<?xml version="1.0" encoding="utf-8"?>
<!-- Generator: Adobe Illustrator 26.3.1, SVG Export Plug-In . SVG Version: 6.00 Build 0)  -->
<svg version="1.1" id="Слой_1" xmlns="http://www.w3.org/2000/svg" xmlns:xlink="http://www.w3.org/1999/xlink" x="0px" y="0px"
	 viewBox="0 0 25.5118103 25.5118103" style="enable-background:new 0 0 25.5118103 25.5118103;" xml:space="preserve">
<style type="text/css">
	.st0{fill:#3763EB;}
</style>
<path class="st0" d="M21.0710907,10.1387177h-5.8076172l-1.7944336-5.5229487
	c-0.1005859-0.309082-0.3886719-0.5180664-0.7133789-0.5180664s-0.612793,0.2089844-0.7133789,0.5180664l-1.7944336,5.5229487
	H4.4407201c-0.324707,0-0.612793,0.2089844-0.7133789,0.5180664c-0.1000977,0.309082,0.0097656,0.6479492,0.2724609,0.8388672
	l4.6982417,3.4135742l-1.7949214,5.5229492c-0.1000977,0.309082,0.0097656,0.6474609,0.2724609,0.8388672
	c0.2626953,0.1904297,0.6191406,0.1904297,0.8818355,0l4.6982422-3.4135742l4.6982422,3.4135742
	c0.1313477,0.0952148,0.2861328,0.1430664,0.440918,0.1430664s0.3095703-0.0478516,0.440918-0.1430664
	c0.2626953-0.190918,0.3725586-0.5297852,0.2724609-0.8388672l-1.7944336-5.5229492l4.6982422-3.4135742
	c0.2626953-0.190918,0.3725586-0.5297852,0.2724609-0.8388672C21.6838837,10.347702,21.3957977,10.1387177,21.0710907,10.1387177z
	 M15.4910126,14.0156708c-0.2626953,0.190918-0.3725586,0.5297852-0.2724609,0.8388672l1.2495117,3.8461914L13.196579,16.323288
	c-0.1313477-0.0952148-0.2861328-0.1430664-0.440918-0.1430664s-0.3095703,0.0478516-0.440918,0.1430664l-3.2714844,2.3769531
	l1.25-3.8457031c0.1000977-0.309082-0.0097656-0.6474609-0.2724609-0.8388672l-3.2719722-2.3769531h4.0439448
	c0.324707,0,0.612793-0.2089844,0.7133789-0.5180664l1.2495117-3.8461909l1.2495117,3.8461909
	c0.1005859,0.309082,0.3886719,0.5180664,0.7133789,0.5180664h4.0444336L15.4910126,14.0156708z"/>
</svg>
