<?xml version="1.0" encoding="utf-8"?>
<!-- Generator: Adobe Illustrator 26.3.1, SVG Export Plug-In . SVG Version: 6.00 Build 0)  -->
<svg version="1.1" id="Слой_1" xmlns="http://www.w3.org/2000/svg" xmlns:xlink="http://www.w3.org/1999/xlink" x="0px" y="0px"
	 viewBox="0 0 25.5118103 25.5118103" style="enable-background:new 0 0 25.5118103 25.5118103;" xml:space="preserve">
<style type="text/css">
	.st0{fill:#3763EB;}
</style>
<path class="st0" d="M21.7234344,5.7124486c0-0.4140625-0.3359375-0.75-0.75-0.75H4.5383763c-0.4140625,0-0.75,0.3359375-0.75,0.75
	v14.0869141c0,0.2509766,0.1254883,0.484375,0.3339844,0.6240234c0.125,0.0830078,0.2700195,0.1259766,0.4160156,0.1259766
	c0.0976562,0,0.1953125-0.0185547,0.2880859-0.0576172l7.8666987-3.2724609l7.9960938,3.2744141
	c0.2304688,0.0927734,0.4941406,0.0683594,0.7021484-0.0712891c0.2075195-0.1396484,0.3320312-0.3730469,0.3320312-0.6230469
	V5.7124486z M20.2234344,18.6821747l-7.2485352-2.96875c-0.0908203-0.0371094-0.1875-0.0556641-0.2841797-0.0556641
	c-0.0981445,0-0.1958008,0.0195312-0.2880859,0.0576172l-7.1142573,2.9599609V6.4624486h14.9350586V18.6821747z"/>
</svg>
