<?xml version="1.0" encoding="utf-8"?>
<!-- Generator: Adobe Illustrator 26.3.1, SVG Export Plug-In . SVG Version: 6.00 Build 0)  -->
<svg version="1.1" id="Слой_1" xmlns="http://www.w3.org/2000/svg" xmlns:xlink="http://www.w3.org/1999/xlink" x="0px" y="0px"
	 viewBox="0 0 25.5118103 25.5118103" style="enable-background:new 0 0 25.5118103 25.5118103;" xml:space="preserve">
<style type="text/css">
	.st0{fill:#3763EB;}
</style>
<g>
	<path class="st0" d="M9.7273407,12.8134003c0,0.1987305,0.0791016,0.3896484,0.2197266,0.5302734l3.378418,3.3779297
		c0.1464844,0.1464844,0.3383789,0.2197266,0.5302734,0.2197266s0.3837891-0.0732422,0.5302734-0.2197266
		c0.2929688-0.2929688,0.2929688-0.7675781,0-1.0605469l-2.8481445-2.8476562l2.8491211-2.8486328
		c0.2929688-0.2929688,0.2929688-0.7675781,0-1.0605469s-0.7675781-0.2929688-1.0605469,0l-3.3793945,3.3789062
		C9.8064423,12.4237518,9.7273407,12.6146698,9.7273407,12.8134003z"/>
	<path class="st0" d="M21.4460907,7.3055882L13.130661,2.504807c-0.2324219-0.1337891-0.5175781-0.1337891-0.75,0
		L4.0657201,7.3055882c-0.2319336,0.1337891-0.375,0.3813477-0.375,0.6494141v9.6015625
		c0,0.2680664,0.1430664,0.515625,0.375,0.6494141l8.3149414,4.8007812c0.1162109,0.0668945,0.2456055,0.1005859,0.375,0.1005859
		s0.2587891-0.0336914,0.375-0.1005859l8.3154297-4.8007812c0.2319336-0.1337891,0.375-0.3813477,0.375-0.6494141V7.9550023
		C21.8210907,7.6869359,21.6780243,7.4393773,21.4460907,7.3055882z M20.3210907,17.1234589l-7.5654297,4.3676758
		l-7.5649409-4.3676758V8.3881073L12.755661,4.020432l7.5654297,4.3676753V17.1234589z"/>
</g>
</svg>
