<?xml version="1.0" encoding="utf-8"?>
<!-- Generator: Adobe Illustrator 26.3.1, SVG Export Plug-In . SVG Version: 6.00 Build 0)  -->
<svg version="1.1" id="Слой_1" xmlns="http://www.w3.org/2000/svg" xmlns:xlink="http://www.w3.org/1999/xlink" x="0px" y="0px"
	 viewBox="0 0 25.5118103 25.5118103" style="enable-background:new 0 0 25.5118103 25.5118103;" xml:space="preserve">
<style type="text/css">
	.st0{fill:#3763EB;}
</style>
<g>
	<path class="st0" d="M19.0710907,3.6909642H6.4407201c-1.5166016,0-2.75,1.2333984-2.75,2.75v12.6298828
		c0,1.5166016,1.2333984,2.75,2.75,2.75h12.6303711c1.5161133,0,2.75-1.2333984,2.75-2.75V6.4409642
		C21.8210907,4.9243627,20.587204,3.6909642,19.0710907,3.6909642z M20.3210907,19.0708466c0,0.6894531-0.5605469,1.25-1.25,1.25
		H6.4407201c-0.6894531,0-1.25-0.5605469-1.25-1.25V6.4409642c0-0.6894531,0.5605469-1.25,1.25-1.25h12.6303711
		c0.6894531,0,1.25,0.5605469,1.25,1.25V19.0708466z"/>
	<path class="st0" d="M15.9539032,7.0571752H9.4690399c-1.46875,0-2.664062,1.195312-2.664062,2.664062
		s1.195312,2.6640625,2.664062,2.6640625h6.4848633c1.46875,0,2.6640625-1.1953125,2.6640625-2.6640625
		S17.4226532,7.0571752,15.9539032,7.0571752z M15.9539032,10.8852997H9.4690399
		c-0.6420898,0-1.1640625-0.5224609-1.1640625-1.1640625s0.5219727-1.1640625,1.1640625-1.1640625h6.4848633
		c0.6420898,0,1.1640625,0.5224609,1.1640625,1.1640625S16.595993,10.8852997,15.9539032,10.8852997z"/>
	<path class="st0" d="M9.4690399,13.4936981c-1.46875,0-2.664062,1.1943359-2.664062,2.6630859
		s1.195312,2.6640625,2.664062,2.6640625h0.0283203c1.46875,0,2.6640625-1.1953125,2.6640625-2.6640625
		S10.9661102,13.4936981,9.4690399,13.4936981z M9.4973602,17.3208466H9.4690399
		c-0.6420898,0-1.1640625-0.5224609-1.1640625-1.1640625s0.5219727-1.1630859,1.1923828-1.1630859
		c0.6420898,0,1.1640625,0.5214844,1.1640625,1.1630859S10.1394501,17.3208466,9.4973602,17.3208466z"/>
	<path class="st0" d="M15.8274384,13.4936981c-1.46875,0-2.6640625,1.1943359-2.6640625,2.6630859
		s1.1953125,2.6640625,2.6640625,2.6640625h0.0288086c1.46875,0,2.6635742-1.1953125,2.6635742-2.6640625
		S17.3249969,13.4936981,15.8274384,13.4936981z M15.8562469,17.3208466h-0.0288086
		c-0.6420898,0-1.1640625-0.5224609-1.1640625-1.1640625s0.5219727-1.1630859,1.1928711-1.1630859
		c0.6416016,0,1.1635742,0.5214844,1.1635742,1.1630859S16.4978485,17.3208466,15.8562469,17.3208466z"/>
</g>
</svg>
