<?xml version="1.0" encoding="utf-8"?>
<!-- Generator: Adobe Illustrator 26.3.1, SVG Export Plug-In . SVG Version: 6.00 Build 0)  -->
<svg version="1.1" id="Слой_1" xmlns="http://www.w3.org/2000/svg" xmlns:xlink="http://www.w3.org/1999/xlink" x="0px" y="0px"
	 viewBox="0 0 25.5118103 25.5118103" style="enable-background:new 0 0 25.5118103 25.5118103;" xml:space="preserve">
<style type="text/css">
	.st0{fill:#3763EB;}
</style>
<path class="st0" d="M19.0710907,4.6543431H6.4407201c-1.5166016,0-2.75,1.2333984-2.75,2.75v7.460937
	c0,1.5166016,1.2333984,2.75,2.75,2.75h1.1391602v2.4921875c0,0.3037109,0.1826172,0.5771484,0.4628901,0.6933594
	c0.0927734,0.0380859,0.1904297,0.0566406,0.2871094,0.0566406c0.1948242,0,0.3867188-0.0761719,0.5302734-0.2197266
	l3.0214844-3.0224609h7.1894531c1.5161133,0,2.75-1.2333984,2.75-2.75v-7.460937
	C21.8210907,5.8877416,20.587204,4.6543431,19.0710907,4.6543431z M20.3210907,14.8652802c0,0.6894531-0.5605469,1.25-1.25,1.25
	h-7.5c-0.1987305,0-0.3896484,0.0791016-0.5302734,0.2197266l-1.9609375,1.9609375v-1.4306641c0-0.4140625-0.3359375-0.75-0.75-0.75
	H6.4407201c-0.6894531,0-1.25-0.5605469-1.25-1.25v-7.460937c0-0.6894531,0.5605469-1.25,1.25-1.25h12.6303711
	c0.6894531,0,1.25,0.5605469,1.25,1.25V14.8652802z"/>
</svg>
