<?xml version="1.0" encoding="utf-8"?>
<!-- Generator: Adobe Illustrator 26.3.1, SVG Export Plug-In . SVG Version: 6.00 Build 0)  -->
<svg version="1.1" id="Слой_1" xmlns="http://www.w3.org/2000/svg" xmlns:xlink="http://www.w3.org/1999/xlink" x="0px" y="0px"
	 viewBox="0 0 25.5118103 25.5118103" style="enable-background:new 0 0 25.5118103 25.5118103;" xml:space="preserve">
<style type="text/css">
	.st0{fill:#3763EB;}
</style>
<path class="st0" d="M21.6091766,8.1216278c0-0.414062-0.3359375-0.7499995-0.75-0.7499995h-4.2227173
	c-0.2359619-1.5753784-1.5853882-2.7910156-3.2255249-2.7910156h-1.2451172c-1.6397095,0-2.9890747,1.2156372-3.2250366,2.7910156
	H4.6526341c-0.4140625,0-0.75,0.3359375-0.75,0.7499995v12.0595703c0,0.4140625,0.3359375,0.75,0.75,0.75h16.206543
	c0.4140625,0,0.75-0.3359375,0.75-0.75V8.1216278z M12.1658173,6.0806127h1.2451172
	c0.8098145,0,1.4870605,0.5484009,1.6990356,1.2910156h-4.6427002C10.679245,6.6290135,11.356369,6.0806127,12.1658173,6.0806127z
	 M20.1091766,19.4311981H5.4026341V8.8716278h14.706543V19.4311981z"/>
</svg>
