<?xml version="1.0" encoding="utf-8"?>
<!-- Generator: Adobe Illustrator 26.3.1, SVG Export Plug-In . SVG Version: 6.00 Build 0)  -->
<svg version="1.1" id="Слой_1" xmlns="http://www.w3.org/2000/svg" xmlns:xlink="http://www.w3.org/1999/xlink" x="0px" y="0px"
	 viewBox="0 0 34.0157471 34.0157471" style="enable-background:new 0 0 34.0157471 34.0157471;" xml:space="preserve">
<style type="text/css">
	.st0{fill:#3763EB;}
</style>
<g>
	<path class="st0" d="M17.0169849,14.2339497c1.3460693,0.012146,2.4746704-1.0614014,2.4824219-2.3612671
		c0.0078125-1.3198853-1.0779419-2.3916626-2.4329224-2.4014893c-1.3880014-0.0100708-2.4959116,1.0403442-2.500001,2.3703003
		C14.5624552,13.1483173,15.6618814,14.2216816,17.0169849,14.2339497z"/>
	<path class="st0" d="M21.9784718,2.3723161c-1.1327515-0.3867797-2.2949219-0.6406859-3.4876099-0.7514037
		c-0.059082-0.0054932-0.1169434-0.024231-0.175354-0.0367432c-0.8824463,0-1.7648926,0-2.6473398,0
		c-0.9428101,0.1246338-1.8898926,0.2397461-2.7998657,0.5249633C6.8517013,3.9945695,3.1551068,8.0130634,1.813188,14.1800556
		c-0.1061401,0.4875488-0.1508789,0.9885254-0.2241821,1.4832153c0,0.8824463,0,1.7648926,0,2.6473389
		c0.1238403,0.9434814,0.2394409,1.8908081,0.5253295,2.8013916c1.8931887,6.0298462,5.9040527,9.826416,12.1134644,11.0338726
		c6.3452158,1.2338257,12.505372-1.6014385,15.925416-7.096983c1.2704468-2.0413818,1.9915752-4.2732544,2.2092266-6.6727905
		C33.0225983,11.0970478,28.5323658,4.6101704,21.9784718,2.3723161z M15.6121988,7.2113056
		c2.8836069-0.829895,5.824769,0.9417114,6.3817148,3.8440552c0.475708,2.479248-1.3041382,5.0103149-3.8842163,5.5116577
		c-0.3526611,0.0685425-0.7137451,0.0935669-1.0709839,0.1387329c-2.3759165-0.0213623-4.4764414-1.6575317-4.9327402-3.8637695
		C11.5888834,10.3422871,13.0857706,7.9384785,15.6121988,7.2113056z M22.5860157,18.6922626
		c-1.0786743,0.9733276-2.3756104,1.4692993-3.7935791,1.6862183c-0.229187,0.0350952-0.4586182,0.0685425-0.7720337,0.1152954
		c0.8878174,0.8516235,1.7127686,1.6428223,2.5374146,2.4342041c0.3860474,0.3704224,0.7755127,0.7373657,1.156311,1.1130371
		c0.519043,0.512146,0.5310669,1.1307373,0.0408325,1.647644c-0.5046997,0.5322266-1.2179565,0.5957031-1.7325439,0.1239014
		c-0.5499878-0.5042725-1.0758667-1.0348511-1.6132812-1.5529785c-0.446167-0.4300537-0.8937378-0.8586426-1.3624878-1.3088379
		c-0.322937,0.309082-0.6270752,0.5987549-0.9296265,0.8900757c-0.66327,0.6385498-1.3248911,1.2786865-1.9887705,1.916626
		c-0.3653564,0.3510742-0.791626,0.4695435-1.2677612,0.2738037c-0.4793091-0.1970215-0.8027344-0.5483398-0.8766479-1.0750732
		c-0.0551147-0.3926392,0.1499634-0.6865845,0.4230347-0.9476929c1.0969849-1.0490112,2.189209-2.1030273,3.2850952-3.1531982
		c0.1069946-0.1025391,0.2270508-0.1913452,0.4071665-0.3416748c-0.5900888-0.1079102-1.0827036-0.1876831-1.5706797-0.2894287
		c-1.1304321-0.2356567-2.1335449-0.7392578-3.006897-1.4908447c-0.4735107-0.4074707-0.5645142-0.7821655-0.3637085-1.2908936
		c0.2642822-0.6693115,0.8966675-0.9656372,1.5773315-0.718689c0.2072754,0.0751953,0.4047852,0.190918,0.5884399,0.3151855
		c2.1696777,1.4679565,5.2514658,1.4649048,7.4318857-0.0046387c0.2033691-0.137085,0.4293213-0.2553711,0.661438-0.3320923
		c0.5532837-0.1828613,1.0942993,0.0323486,1.3838501,0.5181885C23.13167,17.7756367,23.0766773,18.2495136,22.5860157,18.6922626z"
		/>
</g>
</svg>
