<?xml version="1.0" encoding="utf-8"?>
<!-- Generator: Adobe Illustrator 26.3.1, SVG Export Plug-In . SVG Version: 6.00 Build 0)  -->
<svg version="1.1" id="Слой_1" xmlns="http://www.w3.org/2000/svg" xmlns:xlink="http://www.w3.org/1999/xlink" x="0px" y="0px"
	 viewBox="0 0 25.5118103 25.5118103" style="enable-background:new 0 0 25.5118103 25.5118103;" xml:space="preserve">
<style type="text/css">
	.st0{fill:#3763EB;}
</style>
<path class="st0" d="M20.7642059,9.7505903c-0.3447266-1.1889648-1.1845703-2.1743164-2.3041992-2.703125
	c-0.4116211-0.1943359-0.8466797-0.3198242-1.2885742-0.3769531l1.418457-1.3442383
	c0.1738281-0.1640625,0.2583008-0.4013672,0.2285156-0.6386719c-0.0297852-0.2368164-0.1708984-0.4453125-0.3798828-0.5615234
	c-1.9848633-1.1015627-4.4282227-0.5024416-5.6826172,1.3500977c-1.253418-1.8525393-3.6958008-2.4511721-5.6826167-1.3500977
	C6.8643041,4.2422895,6.7231908,4.4507856,6.6934056,4.687602C6.6636205,4.9249067,6.7480931,5.1622114,6.9219213,5.3262739
	l1.4184566,1.3442383C7.8984838,6.7276411,7.4634252,6.8536177,7.0518041,7.0474653
	c-1.1196289,0.5288086-1.9594727,1.5141602-2.3041992,2.703125c-0.065918,0.2265625-0.0209961,0.4707031,0.1206055,0.659668
	c0.1416016,0.1884766,0.3637695,0.2993164,0.5996094,0.2993164h2.5219727
	c-0.7080078,0.8999023-1.0698242,2.059082-0.949707,3.2607422l0.1015625,1.0166016
	c0.0283203,0.2871094,0.2192383,0.5322266,0.4907227,0.6303711c0.2714844,0.0976562,0.5747066,0.0322266,0.7812495-0.1699219
	l2.6553955-2.6097412l-0.3868408,8.3148184c-0.0097656,0.2045898,0.0649414,0.4042969,0.206543,0.5527344
	c0.1416016,0.1479492,0.3374023,0.2319336,0.5424805,0.2319336H14.13237c0.2050781,0,0.4008789-0.0839844,0.5424805-0.2324219
	c0.1416016-0.1479492,0.2163086-0.3481445,0.206543-0.5527344l-0.3881226-8.2647085l2.6049194,2.5601196
	c0.1430664,0.1401367,0.3325195,0.2148438,0.5258789,0.2148438c0.0859375,0,0.171875-0.0146484,0.2553711-0.0449219
	c0.2714844-0.0981445,0.4624023-0.3432617,0.4907227-0.6303711l0.1015625-1.0166016
	c0.1201172-1.2011719-0.2421875-2.3608398-0.949707-3.2607422h2.5219727c0.2358398,0,0.4580078-0.1108398,0.5996094-0.2993164
	C20.785202,10.2212934,20.8301239,9.9771528,20.7642059,9.7505903z M13.3462372,20.4371128h-1.1293945l0.425415-9.1456289
	l0.1136475-0.1116943l0.1633301,0.1605225L13.3462372,20.4371128z M15.2602997,9.2095747
	c-0.3637695,0-0.6748047,0.2607422-0.7382812,0.6186523c-0.0639648,0.3579102,0.1381836,0.7099609,0.4794922,0.8354492
	c1.1137695,0.4091797,1.8701172,1.4179688,1.9794922,2.5649414l-3.6992188-3.6352539
	c-0.2919922-0.2861328-0.7597656-0.2861328-1.0517578,0l-3.6992188,3.6352539
	c0.109375-1.1474609,0.8657227-2.15625,1.9790039-2.5649414c0.3413086-0.1254883,0.5439453-0.4775391,0.4799805-0.8354492
	c-0.0634766-0.3579102-0.3745117-0.6186523-0.7382812-0.6186523H6.6807103
	C6.9482884,8.8702192,7.293015,8.5923872,7.6924291,8.4039106c0.72998-0.3447266,1.5751948-0.359375,2.3183589-0.0395508
	l0.3388672,0.1455078c0.3344727,0.1459961,0.7231445,0.0273438,0.9223633-0.2768555
	c0.199707-0.3037109,0.1533203-0.706543-0.1108398-0.956543L8.8594208,5.0953169
	c1.0683594-0.125,2.1591797,0.3779297,2.7485352,1.3701172l0.503418,0.847168c0.2695312,0.4541016,1.0195312,0.4541016,1.2890625,0
	l0.503418-0.847168c0.5893555-0.9916992,1.6767578-1.4960938,2.7485352-1.3696289l-2.3017578,2.1806641
	c-0.2641602,0.25-0.3105469,0.652832-0.1108398,0.956543c0.1992188,0.3032227,0.5883789,0.4213867,0.9223633,0.2768555
	l0.3398438-0.1455078c0.7416992-0.3198242,1.5869141-0.3046875,2.3173828,0.0395508
	c0.3994141,0.1884766,0.7441406,0.4663086,1.0117188,0.8056641H15.2602997z"/>
</svg>
