<?xml version="1.0" encoding="utf-8"?>
<!-- Generator: Adobe Illustrator 26.3.1, SVG Export Plug-In . SVG Version: 6.00 Build 0)  -->
<svg version="1.1" id="Слой_1" xmlns="http://www.w3.org/2000/svg" xmlns:xlink="http://www.w3.org/1999/xlink" x="0px" y="0px"
	 viewBox="0 0 25.5118103 25.5118103" style="enable-background:new 0 0 25.5118103 25.5118103;" xml:space="preserve">
<style type="text/css">
	.st0{fill:#3763EB;}
</style>
<g>
	<path class="st0" d="M12.7559052,7.2603002c-2.0732422,0-3.7597656,1.686523-3.7597656,3.7592769
		c0,2.0732422,1.6865234,3.7597656,3.7597656,3.7597656s3.7597656-1.6865234,3.7597656-3.7597656
		C16.5156708,8.9468231,14.8291473,7.2603002,12.7559052,7.2603002z M12.7559052,13.2793427
		c-1.2460938,0-2.2597656-1.0136719-2.2597656-2.2597656c0-1.2456055,1.0136719-2.2592773,2.2597656-2.2592773
		s2.2597656,1.0136719,2.2597656,2.2592773C15.0156708,12.2656708,14.0019989,13.2793427,12.7559052,13.2793427z"/>
	<path class="st0" d="M12.7559052,3.6509252c-5.0205073,0-9.1049805,4.0844727-9.1049805,9.1049805
		s4.0844727,9.1049805,9.1049805,9.1049805s9.1049805-4.0844727,9.1049805-9.1049805S17.776413,3.6509252,12.7559052,3.6509252z
		 M8.7567596,19.212265c0.8029785-1.3781738,2.2922974-2.3093872,3.9991455-2.3093872
		c1.706665,0,3.1911621,0.9344482,3.9942627,2.3123779c-1.1625977,0.7216187-2.5282593,1.1456299-3.9942627,1.1456299
		C11.2878265,20.3608856,9.9203339,19.9357147,8.7567596,19.212265z M17.9523163,18.2932587
		c-1.0843506-1.732605-3.0059814-2.8903809-5.1964111-2.8903809c-2.1907959,0-4.1082764,1.1606445-5.1925044,2.8939209
		c-1.4807129-1.3884888-2.4124756-3.3557129-2.4124756-5.5408936c0-4.1933594,3.4116206-7.60498,7.60498-7.60498
		s7.6049805,3.4116206,7.6049805,7.60498C20.3608856,14.9391937,19.4307709,16.904953,17.9523163,18.2932587z"/>
</g>
</svg>
