<?xml version="1.0" encoding="utf-8"?>
<!-- Generator: Adobe Illustrator 26.3.1, SVG Export Plug-In . SVG Version: 6.00 Build 0)  -->
<svg version="1.1" id="Слой_1" xmlns="http://www.w3.org/2000/svg" xmlns:xlink="http://www.w3.org/1999/xlink" x="0px" y="0px"
	 viewBox="0 0 25.5118103 25.5118103" style="enable-background:new 0 0 25.5118103 25.5118103;" xml:space="preserve">
<style type="text/css">
	.st0{fill:#3763EB;}
</style>
<path class="st0" d="M8.8825331,20.4131317c0.2119141,0.2929688,0.53125,0.4599609,0.8764648,0.4599609h1.4936523
	c1.0083008,0,1.956543-0.5917969,2.5356445-1.5830078l2.1928711-3.7548828h1.5117178
	c0.894043,0,1.7666016-0.3027344,2.5229492-0.875l1.3076172-0.9873047c0.2749023-0.2089844,0.4370117-0.5517578,0.4345703-0.9179688
	c-0.0024414-0.3642578-0.1689453-0.703125-0.4453125-0.9072266l-1.3139648-0.9736328
	c-0.75-0.5556641-1.6098633-0.8486328-2.4868164-0.8486328h-1.5024414l-2.2211905-3.804687
	c-0.5791016-0.9902344-1.5273438-1.5820312-2.5356445-1.5820312H9.7589979c-0.3452148,0-0.6645508,0.1669922-0.8764648,0.4599609
	C8.6408339,5.4316869,8.5749159,5.8721166,8.7067518,6.2754369l1.2290039,3.7499995H8.1149549l-0.473145-0.7148438
	C7.2560678,8.5361786,6.5407357,8.0547333,5.7746224,8.0547333H4.7458138c-0.2768555,0-0.5424805,0.1230469-0.7285156,0.3388672
	C3.8249156,8.6152802,3.7321422,8.910202,3.7580211,9.2109833l0.0083008,7.0908203
	c-0.0253906,0.3007812,0.0668945,0.5957031,0.2592771,0.8173828c0.1860352,0.2148438,0.4516602,0.3378906,0.7285156,0.3378906
	h1.0283203c0.7666016,0,1.4824219-0.4814453,1.8232422-1.1787109L8.092494,15.535202h1.8271484l-1.2128906,3.7011719
	C8.5749159,19.6396942,8.6408339,20.0801239,8.8825331,20.4131317z M7.6872201,14.035202
	c-0.2529297,0-0.4887695,0.1269531-0.6274414,0.3388672L6.306849,15.5332489
	c-0.1303711,0.2617188-0.3310547,0.4238281-0.5244141,0.4238281H5.2658334L5.2585092,9.5547333h0.5161133
	c0.1933594,0,0.394043,0.1621094,0.5683594,0.5009766l0.7412109,1.1308594
	c0.1386719,0.2119141,0.3745117,0.3388672,0.6274414,0.3388672h3.2592778c0.2402344,0,0.4663086-0.1152344,0.6074219-0.3095703
	c0.1411133-0.1953125,0.1801758-0.4453125,0.1054688-0.6738281l-1.4433594-4.4033198h1.012207
	c0.4697266,0,0.9335938,0.3134766,1.2407227,0.8388672l2.4379883,4.1757808
	c0.1342773,0.2304688,0.3808594,0.3720703,0.6474609,0.3720703h1.9331045c0.5532227,0,1.1049805,0.1914062,1.5947266,0.5537109
	l0.9277344,0.6875l-0.9228516,0.6962891c-0.4941406,0.375-1.0541992,0.5722656-1.6186523,0.5722656h-1.9423819
	c-0.2666016,0-0.5131836,0.1416016-0.6474609,0.3720703l-2.409668,4.1259766
	c-0.3071289,0.5263672-0.7709961,0.8398438-1.2407227,0.8398438h-1.012207l1.4272461-4.3544922
	c0.074707-0.2285156,0.0356445-0.4785156-0.1054688-0.6738281c-0.1411133-0.1943359-0.3671875-0.3095703-0.6074219-0.3095703
	H7.6872201z"/>
</svg>
