<?xml version="1.0" encoding="utf-8"?>
<!-- Generator: Adobe Illustrator 26.3.1, SVG Export Plug-In . SVG Version: 6.00 Build 0)  -->
<svg version="1.1" id="Слой_1" xmlns="http://www.w3.org/2000/svg" xmlns:xlink="http://www.w3.org/1999/xlink" x="0px" y="0px"
	 viewBox="0 0 25.5118103 25.5118103" style="enable-background:new 0 0 25.5118103 25.5118103;" xml:space="preserve">
<style type="text/css">
	.st0{fill:none;}
	.st1{fill:#3763EB;}
</style>
<g>
	<path class="st0" d="M6.4407201,20.3213348h12.6303711c0.6894531,0,1.25-0.5605469,1.25-1.25V6.4404759
		c0-0.6894531-0.5605469-1.25-1.25-1.25H6.4407201c-0.6894531,0-1.25,0.5605469-1.25,1.25v12.6308594
		C5.1907201,19.760788,5.751267,20.3213348,6.4407201,20.3213348z M8.9001923,9.4707489h7.4506836
		c0.4140625,0,0.75,0.3359375,0.75,0.75s-0.3359375,0.75-0.75,0.75H8.9001923c-0.4140625,0-0.75-0.3359375-0.75-0.75
		S8.4861298,9.4707489,8.9001923,9.4707489z M8.9001923,12.0630341h7.4506836c0.4140625,0,0.75,0.3359375,0.75,0.75
		s-0.3359375,0.75-0.75,0.75H8.9001923c-0.4140625,0-0.75-0.3359375-0.75-0.75S8.4861298,12.0630341,8.9001923,12.0630341z
		 M8.9001923,14.6553192h7.4506836c0.4140625,0,0.75,0.3359375,0.75,0.75s-0.3359375,0.75-0.75,0.75H8.9001923
		c-0.4140625,0-0.75-0.3359375-0.75-0.75S8.4861298,14.6553192,8.9001923,14.6553192z"/>
	<path class="st1" d="M8.9001923,13.5630341h7.4506836c0.4140625,0,0.75-0.3359375,0.75-0.75s-0.3359375-0.75-0.75-0.75H8.9001923
		c-0.4140625,0-0.75,0.3359375-0.75,0.75S8.4861298,13.5630341,8.9001923,13.5630341z"/>
	<path class="st1" d="M8.9001923,10.9707489h7.4506836c0.4140625,0,0.75-0.3359375,0.75-0.75s-0.3359375-0.75-0.75-0.75H8.9001923
		c-0.4140625,0-0.75,0.3359375-0.75,0.75S8.4861298,10.9707489,8.9001923,10.9707489z"/>
	<path class="st1" d="M8.9001923,16.1553192h7.4506836c0.4140625,0,0.75-0.3359375,0.75-0.75s-0.3359375-0.75-0.75-0.75H8.9001923
		c-0.4140625,0-0.75,0.3359375-0.75,0.75S8.4861298,16.1553192,8.9001923,16.1553192z"/>
	<path class="st1" d="M6.4407201,21.8213348h12.6303711c1.5161133,0,2.75-1.2338867,2.75-2.75V6.4404759
		c0-1.5161133-1.2338867-2.75-2.75-2.75H6.4407201c-1.5166016,0-2.75,1.2338867-2.75,2.75v12.6308594
		C3.6907201,20.5874481,4.9241185,21.8213348,6.4407201,21.8213348z M5.1907201,6.4404759c0-0.6894531,0.5605469-1.25,1.25-1.25
		h12.6303711c0.6894531,0,1.25,0.5605469,1.25,1.25v12.6308594c0,0.6894531-0.5605469,1.25-1.25,1.25H6.4407201
		c-0.6894531,0-1.25-0.5605469-1.25-1.25V6.4404759z"/>
</g>
</svg>
