<?xml version="1.0" encoding="utf-8"?>
<!-- Generator: Adobe Illustrator 26.3.1, SVG Export Plug-In . SVG Version: 6.00 Build 0)  -->
<svg version="1.1" id="Слой_1" xmlns="http://www.w3.org/2000/svg" xmlns:xlink="http://www.w3.org/1999/xlink" x="0px" y="0px"
	 viewBox="0 0 25.5118103 25.5118103" style="enable-background:new 0 0 25.5118103 25.5118103;" xml:space="preserve">
<style type="text/css">
	.st0{fill:#3763EB;}
</style>
<path class="st0" d="M17.8035126,13.1606903c-0.3937988,0-0.7666016,0.0757446-1.1256104,0.1838989l-1.2557373-2.1106567
	c-0.0072021-0.012085-0.0193481-0.0184326-0.0270996-0.0299683c0.7677612-0.7183838,1.255127-1.7324829,1.255127-2.864563
	c0-2.1694331-1.7646484-3.9340816-3.9335938-3.9340816c-2.1694336,0-3.934082,1.7646484-3.934082,3.9340816
	c0,1.2047729,0.5558472,2.2712402,1.411377,2.9934082l-1.2613525,2.1200562
	c-0.3876343-0.1281128-0.7941895-0.2145386-1.2242427-0.2145386c-2.1689453,0-3.9335938,1.7646484-3.9335938,3.934082
	s1.7646484,3.934082,3.9335938,3.934082c2.1694331,0,3.9340816-1.7646484,3.9340816-3.934082
	c0-1.2001953-0.5515747-2.2631226-1.4014893-2.9852905l1.263855-2.1243286
	c0.3840942,0.1254883,0.786377,0.2106934,1.211853,0.2106934c0.5004883,0,0.9752808-0.1030884,1.4160156-0.274292
	c0.0002441,0.0004272,0.0002441,0.0009155,0.0004883,0.0013428l1.2162476,2.0442505
	c-0.8949585,0.7217407-1.4799194,1.8132935-1.4799194,3.0499878c0,2.1694336,1.7646484,3.934082,3.934082,3.934082
	c2.1689453,0,3.9335938-1.7646484,3.9335938-3.934082S19.9724579,13.1606903,17.8035126,13.1606903z M7.7082982,19.6064911
	c-1.3417969,0-2.4335938-1.0917969-2.4335938-2.434082s1.0917969-2.434082,2.4335938-2.434082
	c1.3422847,0,2.4340816,1.0917969,2.4340816,2.434082S9.0505829,19.6064911,7.7082982,19.6064911z M10.2825165,8.3394012
	c0-1.3422847,1.0917969-2.4340816,2.434082-2.4340816c1.3417969,0,2.4335938,1.0917969,2.4335938,2.4340816
	s-1.0917969,2.434082-2.4335938,2.434082C11.3743134,10.7734833,10.2825165,9.6816864,10.2825165,8.3394012z M17.8035126,19.5288544
	c-1.3422852,0-2.434082-1.0917969-2.434082-2.434082s1.0917969-2.434082,2.434082-2.434082
	c1.3417969,0,2.4335938,1.0917969,2.4335938,2.434082S19.1453094,19.5288544,17.8035126,19.5288544z"/>
</svg>
