<?xml version="1.0" encoding="utf-8"?>
<!-- Generator: Adobe Illustrator 26.3.1, SVG Export Plug-In . SVG Version: 6.00 Build 0)  -->
<svg version="1.1" id="Слой_1" xmlns="http://www.w3.org/2000/svg" xmlns:xlink="http://www.w3.org/1999/xlink" x="0px" y="0px"
	 viewBox="0 0 25.5118103 25.5118103" style="enable-background:new 0 0 25.5118103 25.5118103;" xml:space="preserve">
<style type="text/css">
	.st0{fill:none;}
	.st1{fill:#3763EB;}
</style>
<g>
	<path class="st0" d="M12.7559052,15.7620087c1.6572266,0,3.0058594-1.3486328,3.0058594-3.0063477
		c0-1.6572266-1.3486328-3.0058594-3.0058594-3.0058594s-3.0058594,1.3486328-3.0058594,3.0058594
		C9.7500458,14.4133759,11.0986786,15.7620087,12.7559052,15.7620087z"/>
	<path class="st0" d="M6.6880345,14.1829071c0.1542969,0.6577148,0.4125977,1.28125,0.7675781,1.8530273
		c0.1186523,0.190918,0.1450195,0.4248047,0.0727539,0.6376953l-0.3588867,1.0512695l0.6171875,0.6171875l1.0512691-0.3583984
		c0.2124023-0.0732422,0.4467773-0.0463867,0.637207,0.0727539c0.5727539,0.3544922,1.1958008,0.612793,1.8535156,0.7670898
		c0.21875,0.0512695,0.402832,0.1977539,0.5019531,0.3994141l0.4897461,0.9980469h0.8706055l0.4902344-0.9980469
		c0.0991211-0.2016602,0.2832031-0.3481445,0.5019531-0.3994141c0.6577148-0.1542969,1.28125-0.4125977,1.8535156-0.7670898
		c0.1899414-0.1191406,0.4238281-0.1459961,0.637207-0.0727539l1.0507812,0.3583984l0.6171875-0.6171875l-0.3583984-1.0512695
		c-0.0722656-0.2128906-0.0458984-0.4472656,0.0727539-0.6381836c0.3549805-0.5708008,0.612793-1.1938477,0.7675781-1.8525391
		c0.0512695-0.21875,0.1977539-0.402832,0.3994141-0.5019531l0.9975586-0.4897461v-0.8706055l-0.9975586-0.4902344
		c-0.2016602-0.0991211-0.3481445-0.2832031-0.3994141-0.5019531c-0.1547852-0.6582031-0.4125977-1.28125-0.7675781-1.8520508
		c-0.1186523-0.190918-0.1450195-0.425293-0.0727539-0.6381836l0.3583984-1.0512691L17.7246552,7.169724l-1.0507812,0.3583984
		c-0.2133789,0.0712891-0.4472656,0.0458984-0.637207-0.0727539c-0.5722656-0.3544922-1.1958008-0.612793-1.8535156-0.7670898
		c-0.21875-0.0512695-0.402832-0.1977539-0.5019531-0.3994141l-0.4902344-0.9980469h-0.8706055l-0.4897461,0.9980469
		c-0.0991211,0.2016602-0.2832031,0.3481445-0.5019531,0.3994141c-0.6577148,0.1542969-1.2807617,0.4125977-1.8535156,0.7670898
		c-0.1904297,0.1186523-0.4248047,0.144043-0.637207,0.0727539L7.7871556,7.169724L7.1699681,7.7869115l0.3583984,1.0512691
		C7.6006322,9.0510712,7.574265,9.2854462,7.4556127,9.4763641c-0.3549805,0.5708008-0.612793,1.1938477-0.7675781,1.8520508
		c-0.0512695,0.21875-0.1977539,0.402832-0.3994141,0.5019531l-0.9975586,0.4902344v0.8706055l0.9975586,0.4897461
		C6.4902806,13.7800751,6.636765,13.9641571,6.6880345,14.1829071z M12.7466278,8.2498016
		c2.484375,0,4.5058594,2.0214844,4.5058594,4.5058594c0,2.4848633-2.0214844,4.5063477-4.5058594,4.5063477
		s-4.5058594-2.0214844-4.5058594-4.5063477C8.2407684,10.271286,10.2622528,8.2498016,12.7466278,8.2498016z"/>
	<path class="st1" d="M12.7559052,17.2620087c2.484375,0,4.5058594-2.0214844,4.5058594-4.5063477
		c0-2.484375-2.0214844-4.5058594-4.5058594-4.5058594S8.2500458,10.271286,8.2500458,12.755661
		C8.2500458,15.2405243,10.2715302,17.2620087,12.7559052,17.2620087z M12.7559052,9.7498016
		c1.6572266,0,3.0058594,1.3486328,3.0058594,3.0058594c0,1.6577148-1.3486328,3.0063477-3.0058594,3.0063477
		s-3.0058594-1.3486328-3.0058594-3.0063477C9.7500458,11.0984344,11.0986786,9.7498016,12.7559052,9.7498016z"/>
	<path class="st1" d="M4.2104955,14.3318329l1.1083984,0.5439453c0.1621094,0.5717773,0.3896484,1.1210938,0.6787109,1.6391602
		l-0.3989258,1.1679688c-0.0922852,0.2705078-0.0224609,0.5703125,0.1796875,0.7724609l1.2783203,1.277832
		c0.2021484,0.2021484,0.5019531,0.2705078,0.7724609,0.1796875l1.16748-0.3984375
		c0.5185547,0.2885742,1.0673828,0.5161133,1.6391602,0.6782227l0.5439453,1.1088867
		c0.1259766,0.2568359,0.387207,0.4194336,0.6733398,0.4194336h1.8051758c0.2861328,0,0.546875-0.1625977,0.6733398-0.4194336
		l0.5444336-1.1088867c0.5717773-0.1625977,1.1206055-0.3896484,1.6391602-0.6782227l1.1674805,0.3984375
		c0.2705078,0.0917969,0.5703125,0.0229492,0.7724609-0.1796875l1.277832-1.277832
		c0.2021484-0.2021484,0.2719727-0.5014648,0.1796875-0.7724609l-0.3984375-1.1679688
		c0.2890625-0.5175781,0.5161133-1.0668945,0.6791992-1.6391602l1.1079102-0.5439453
		c0.2568359-0.1259766,0.4194336-0.387207,0.4194336-0.6733398v-1.8051758c0-0.2861328-0.1625977-0.546875-0.4194336-0.6733398
		l-1.1083984-0.5444336c-0.1625977-0.5722656-0.3896484-1.1210938-0.6787109-1.6386719l0.3984375-1.1679683
		c0.0922852-0.2709961,0.0224609-0.5703125-0.1796875-0.7724609l-1.277832-1.277832
		c-0.2021484-0.2026367-0.5024414-0.2714844-0.7724609-0.1796875l-1.1674805,0.3984375
		c-0.5185547-0.2885742-1.0673828-0.5161133-1.6391602-0.6782227l-0.5444336-1.1088867
		c-0.1264648-0.2568359-0.387207-0.4194336-0.6733398-0.4194336h-1.8051758c-0.2861328,0-0.5473633,0.1625977-0.6733398,0.4194336
		L10.635788,5.3191381c-0.5717773,0.1621094-1.1206055,0.3896484-1.6391602,0.6782227l-1.16748-0.3984375
		C7.5596166,5.5081029,7.2598119,5.5769506,7.0566869,5.7786107l-1.277832,1.277832
		C5.5767064,7.2585912,5.5068822,7.5579076,5.5991673,7.8289037l0.3984375,1.1679683
		c-0.2890625,0.5175781-0.5161133,1.0664062-0.6787109,1.6386719l-1.1083984,0.5444336
		c-0.2568359,0.1264648-0.4194336,0.387207-0.4194336,0.6733398v1.8051758
		C3.7910619,13.9446259,3.9536595,14.2058563,4.2104955,14.3318329z M5.2910619,12.3206024l0.9975586-0.4902344
		c0.2016602-0.0991211,0.3481445-0.2832031,0.3994141-0.5019531c0.1547852-0.6582031,0.4125977-1.28125,0.7675781-1.8520508
		c0.1186523-0.190918,0.1450195-0.425293,0.0727539-0.6381836L7.1699681,7.7869115L7.7871556,7.169724l1.0507808,0.3583984
		c0.2124023,0.0712891,0.4467773,0.0458984,0.637207-0.0727539c0.5727539-0.3544922,1.1958008-0.612793,1.8535156-0.7670898
		c0.21875-0.0512695,0.402832-0.1977539,0.5019531-0.3994141l0.4897461-0.9980469h0.8706055l0.4902344,0.9980469
		c0.0991211,0.2016602,0.2832031,0.3481445,0.5019531,0.3994141c0.6577148,0.1542969,1.28125,0.4125977,1.8535156,0.7670898
		c0.1899414,0.1186523,0.4238281,0.144043,0.637207,0.0727539l1.0507812-0.3583984l0.6171875,0.6171875l-0.3583984,1.0512691
		c-0.0722656,0.2128906-0.0458984,0.4472656,0.0727539,0.6381836c0.3549805,0.5708008,0.612793,1.1938477,0.7675781,1.8520508
		c0.0512695,0.21875,0.1977539,0.402832,0.3994141,0.5019531l0.9975586,0.4902344v0.8706055l-0.9975586,0.4897461
		c-0.2016602,0.0991211-0.3481445,0.2832031-0.3994141,0.5019531c-0.1547852,0.6586914-0.4125977,1.2817383-0.7675781,1.8525391
		c-0.1186523,0.190918-0.1450195,0.425293-0.0727539,0.6381836l0.3583984,1.0512695l-0.6171875,0.6171875l-1.0507812-0.3583984
		c-0.2133789-0.0732422-0.4472656-0.0463867-0.637207,0.0727539c-0.5722656,0.3544922-1.1958008,0.612793-1.8535156,0.7670898
		c-0.21875,0.0512695-0.402832,0.1977539-0.5019531,0.3994141l-0.4902344,0.9980469h-0.8706055l-0.4897461-0.9980469
		c-0.0991211-0.2016602-0.2832031-0.3481445-0.5019531-0.3994141c-0.6577148-0.1542969-1.2807617-0.4125977-1.8535156-0.7670898
		c-0.1904297-0.1191406-0.4248047-0.1459961-0.637207-0.0727539l-1.0512691,0.3583984l-0.6171875-0.6171875l0.3588867-1.0512695
		c0.0722656-0.2128906,0.0458984-0.4467773-0.0727539-0.6376953c-0.3549805-0.5717773-0.6132812-1.1953125-0.7675781-1.8530273
		c-0.0512695-0.21875-0.1977539-0.402832-0.3994141-0.5019531l-0.9975586-0.4897461V12.3206024z"/>
</g>
</svg>
