<?xml version="1.0" encoding="utf-8"?>
<!-- Generator: Adobe Illustrator 26.3.1, SVG Export Plug-In . SVG Version: 6.00 Build 0)  -->
<svg version="1.1" id="Слой_1" xmlns="http://www.w3.org/2000/svg" xmlns:xlink="http://www.w3.org/1999/xlink" x="0px" y="0px"
	 viewBox="0 0 34.0157471 34.0157471" style="enable-background:new 0 0 34.0157471 34.0157471;" xml:space="preserve">
<style type="text/css">
	.st0{fill:#3763EB;}
</style>
<g>
	<g>
		<path class="st0" d="M15.6992712,1.8449625c0.8674726,0,1.7349463,0,2.6024179,0
			c0.2137642,0.0311928,0.4271183,0.0655704,0.6413536,0.0930985c3.006546,0.3863263,5.6853619,1.5454724,7.9481487,3.5540125
			c4.0228806,3.5708737,5.7467289,8.0678787,5.1504345,13.4166374c-0.3310986,2.9699745-1.4919586,5.6225739-3.4596539,7.8635292
			c-3.8068504,4.3355293-8.6299553,6.1641006-14.296977,5.1046715c-6.1117144-1.142561-10.0498877-4.9065533-11.909544-10.8354874
			c-0.2807856-0.8952007-0.3946462-1.826416-0.516315-2.7539082c0-0.8674717,0-1.7349453,0-2.6024189
			c0.0707359-0.4765759,0.1303048-0.9551182,0.2139094-1.4294262C3.0748119,8.5724249,7.4260459,3.8356841,13.0027342,2.3419363
			C13.8895988,2.1043849,14.7923784,1.9668199,15.6992712,1.8449625z M14.2956295,23.2573566
			c0.0020742,0.0002117,0.0041485,0.0004234,0.0062218,0.0006351c-0.0132294,0.1272984-0.0192928,0.2558498-0.0412798,0.3816166
			c-0.038064,0.2177238,0.0684481,0.2368546,0.2370243,0.1864738c0.166688-0.0498161,0.2918653-0.1611843,0.4130116-0.2773762
			c0.5547838-0.5321026,1.1132364-1.0605316,1.6596842-1.6010838c0.1637573-0.161993,0.288826-0.1782913,0.4768524-0.0341377
			c0.5551739,0.4256344,1.1236248,0.8339539,1.6870613,1.248806c0.5951881,0.4382286,1.1847591,0.8843803,1.7874584,1.3120289
			c0.6569157,0.4661198,1.1678181,0.2767754,1.3747597-0.4929924c0.0178947-0.0665607,0.0358582-0.1332226,0.0501862-0.2006035
			c0.7678661-3.6115227,1.5373135-7.2227154,2.300106-10.83531c0.0850716-0.4028978,0.211935-0.8012905,0.1880836-1.2224703
			c-0.0282059-0.4981337-0.3223152-0.7501268-0.8181152-0.7008467c-0.1800842,0.0179005-0.342823,0.0884943-0.5078011,0.1520662
			c-4.5501671,1.7532997-9.1003561,3.5065336-13.6491518,5.263381c-0.3756895,0.1450996-0.7702379,0.2537613-1.1045246,0.490469
			c-0.3940234,0.279007-0.368762,0.6004906,0.0607815,0.8091068c0.1056986,0.0513344,0.2191868,0.0883541,0.3316927,0.1236763
			c1.0806513,0.3392811,2.1645308,0.6686192,3.2409859,1.0206776c0.2613163,0.0854626,0.459445,0.0511036,0.6873083-0.0931244
			c2.7061729-1.7128849,5.4176626-3.4173746,8.1285105-5.1228695c0.1247807-0.0785046,0.2505932-0.1616468,0.3869762-0.2136526
			c0.1345253-0.0512991,0.3090458-0.1074371,0.4007397,0.0509167c0.0806866,0.1393509-0.0700665,0.2254047-0.1544857,0.3156633
			c-0.0402241,0.0430079-0.0879097,0.0789938-0.1317768,0.1186438c-2.186039,1.9759512-4.3710022,3.9530954-6.5601835,5.9255571
			c-0.1570463,0.1414986-0.248991,0.2975159-0.2623329,0.5063801
			C14.4219189,21.3318481,14.3584156,22.2945805,14.2956295,23.2573566z"/>
	</g>
</g>
</svg>
