<?xml version="1.0" encoding="utf-8"?>
<!-- Generator: Adobe Illustrator 26.3.1, SVG Export Plug-In . SVG Version: 6.00 Build 0)  -->
<svg version="1.1" id="Слой_1" xmlns="http://www.w3.org/2000/svg" xmlns:xlink="http://www.w3.org/1999/xlink" x="0px" y="0px"
	 viewBox="0 0 34.0157471 34.0157471" style="enable-background:new 0 0 34.0157471 34.0157471;" xml:space="preserve">
<style type="text/css">
	.st0{fill:#3763EB;}
</style>
<g>
	<g>
		<path class="st0" d="M15.6879444,1.8122219c0.8694038,0,1.7388077,0,2.6082115,0
			c0.0575542,0.0123597,0.1145458,0.0307822,0.1727467,0.0361845c1.1750927,0.1090753,2.3200378,0.3592321,3.4360619,0.7403034
			c6.4570026,2.2047734,10.8808289,8.595726,10.2304344,15.7671576c-0.2144051,2.3640747-0.9249058,4.5629406-2.1765385,6.5741272
			c-3.3695259,5.4143181-9.4385548,8.2076397-15.689992,6.9920464C8.1512642,30.7324734,4.1997046,26.9920025,2.3345509,21.051302
			c-0.2816505-0.8970833-0.3955498-1.83041-0.5175501-2.7599239c0-0.8694038,0-1.7388077,0-2.6082125
			c0.0721864-0.4874125,0.1162887-0.980937,0.2208203-1.4613113C3.3599377,8.1460819,7.0018601,4.1870117,12.9294691,2.3294051
			C13.8260441,2.0484345,14.7590809,1.9350128,15.6879444,1.8122219z M24.4752903,22.5382423
			c-0.0000172-0.0090141-0.0000343-0.0180264-0.0000496-0.0270386c0.0394573-0.0020218,0.0788956-0.0052509,0.1183777-0.0058765
			c0.395052-0.0062733,0.7901001-0.0130768,1.1851749-0.0176182c0.1588192-0.0018272,0.3143005-0.0161667,0.4668541-0.0663395
			c0.4779797-0.1571922,0.6154385-0.4631634,0.3976727-0.9148178c-0.1990452-0.4128208-0.4864502-0.7650127-0.7798634-1.1131821
			c-0.5748062-0.6820736-1.2588692-1.2543354-1.8832741-1.8863449c-0.5423946-0.548996-0.5656624-0.8693657-0.1376686-1.5156364
			c0.1307373-0.1974106,0.2743034-0.3865623,0.416605-0.5760345c0.4211273-0.5607281,0.8539944-1.1129122,1.2645378-1.6812449
			c0.4453678-0.6165361,0.8848953-1.2408428,1.1422272-1.966073c0.1949997-0.5495539,0.0302887-0.7827215-0.5463963-0.8087349
			c-0.0690327-0.0031157-0.1382389-0.0038967-0.2073555-0.0035896c-0.9778767,0.0043535-1.9557495,0.0096769-2.9336281,0.0134964
			c-0.5919437,0.0023117-0.6787128,0.0576353-0.9018917,0.6105547c-0.4639759,1.1494904-1.0404148,2.2380524-1.7582703,3.2497549
			c-0.2173061,0.3062572-0.4410439,0.6094036-0.7344093,0.8494129c-0.4143238,0.3389702-0.7210693,0.2518806-0.8961754-0.2564697
			c-0.0940971-0.2731762-0.1175156-0.5590897-0.1120605-0.847085c0.0192566-1.0168238,0.048975-2.0335894,0.0544186-3.0504847
			c0.0032921-0.6150951-0.2101021-0.8738241-0.804678-0.9796057c-1.0788517-0.1919394-2.1613712-0.1543226-3.2409067,0.0062084
			c-0.247632,0.0368223-0.4744339,0.1358786-0.6599264,0.3121386c-0.2032766,0.1931601-0.1920033,0.2633753,0.0740452,0.3522577
			c0.4627237,0.1545868,0.7564201,0.4540567,0.8316069,0.9443684c0.1611691,1.0510159,0.1936569,2.105588-0.0194635,3.1504679
			c-0.1406441,0.6895447-0.5596266,0.7950935-1.0723925,0.3029499c-0.2651548-0.2544918-0.4749784-0.5545845-0.6787796-0.8583937
			c-0.6846218-1.0205708-1.25564-2.1018667-1.7193518-3.2393932c-0.1387014-0.3402462-0.3698282-0.5874996-0.7406912-0.5935831
			c-0.9473457-0.0155382-1.8969049-0.0594273-2.8423667,0.0256166c-0.5250821,0.0472307-0.6434288,0.2584982-0.4305205,0.7342863
			c1.0188599,2.2768478,2.1736937,4.4780197,3.6789665,6.4784412c0.7485132,0.99473,1.6079121,1.8705769,2.7083941,2.4865532
			c1.219945,0.6828423,2.531167,0.9005413,3.9129648,0.8401985c0.7793102-0.0340328,0.9781265-0.2006531,1.0044403-0.9801559
			c0.0120792-0.3577347,0.0729713-0.7081203,0.2182369-1.0369625c0.2641106-0.597868,0.6975384-0.7045155,1.1996136-0.2924385
			c0.3062153,0.2513218,0.5640011,0.552475,0.8250351,0.8492756c0.2935619,0.3337822,0.5829945,0.6722393,0.9267235,0.9568596
			c0.3727646,0.3086643,0.7873249,0.5357037,1.2823963,0.5511646
			C23.5469856,22.5496178,24.0113144,22.5382423,24.4752903,22.5382423z"/>
	</g>
</g>
</svg>
