<?xml version="1.0" encoding="utf-8"?>
<!-- Generator: Adobe Illustrator 26.3.1, SVG Export Plug-In . SVG Version: 6.00 Build 0)  -->
<svg version="1.1" id="Слой_1" xmlns="http://www.w3.org/2000/svg" xmlns:xlink="http://www.w3.org/1999/xlink" x="0px" y="0px"
	 viewBox="0 0 25.5118103 25.5118103" style="enable-background:new 0 0 25.5118103 25.5118103;" xml:space="preserve">
<style type="text/css">
	.st0{fill:#3763EB;}
</style>
<g>
	<path class="st0" d="M16.3508759,12.0630341h-4.6625977c-0.4140625,0-0.75,0.3359375-0.75,0.75s0.3359375,0.75,0.75,0.75h4.6625977
		c0.4140625,0,0.75-0.3359375,0.75-0.75S16.7649384,12.0630341,16.3508759,12.0630341z"/>
	<path class="st0" d="M16.3508759,9.4702606h-4.6625977c-0.4140625,0-0.75,0.3359375-0.75,0.75s0.3359375,0.75,0.75,0.75h4.6625977
		c0.4140625,0,0.75-0.3359375,0.75-0.75S16.7649384,9.4702606,16.3508759,9.4702606z"/>
	<path class="st0" d="M16.3508759,14.6558075h-4.6625977c-0.4140625,0-0.75,0.3359375-0.75,0.75s0.3359375,0.75,0.75,0.75h4.6625977
		c0.4140625,0,0.75-0.3359375,0.75-0.75S16.7649384,14.6558075,16.3508759,14.6558075z"/>
	<path class="st0" d="M19.0710907,3.6909642H6.4407201c-1.5166016,0-2.75,1.2333984-2.75,2.75v12.6298828
		c0,1.5166016,1.2333984,2.75,2.75,2.75h12.6303711c1.5161133,0,2.75-1.2333984,2.75-2.75V6.4409642
		C21.8210907,4.9243627,20.587204,3.6909642,19.0710907,3.6909642z M20.3210907,19.0708466c0,0.6894531-0.5605469,1.25-1.25,1.25
		H6.4407201c-0.6894531,0-1.25-0.5605469-1.25-1.25V6.4409642c0-0.6894531,0.5605469-1.25,1.25-1.25h12.6303711
		c0.6894531,0,1.25,0.5605469,1.25,1.25V19.0708466z"/>
	<circle class="st0" cx="9.2101898" cy="10.208847" r="0.75"/>
	<circle class="st0" cx="9.2101898" cy="12.7849579" r="0.75"/>
	<circle class="st0" cx="9.2101898" cy="15.3936615" r="0.75"/>
</g>
</svg>
