<?xml version="1.0" encoding="utf-8"?>
<!-- Generator: Adobe Illustrator 26.3.1, SVG Export Plug-In . SVG Version: 6.00 Build 0)  -->
<svg version="1.1" id="Слой_1" xmlns="http://www.w3.org/2000/svg" xmlns:xlink="http://www.w3.org/1999/xlink" x="0px" y="0px"
	 viewBox="0 0 25.5118103 25.5118103" style="enable-background:new 0 0 25.5118103 25.5118103;" xml:space="preserve">
<style type="text/css">
	.st0{fill:#3763EB;}
</style>
<g>
	<path class="st0" d="M12.7559052,3.6509252c-5.0205073,0-9.1049805,4.0844727-9.1049805,9.1049805
		s4.0844727,9.1049805,9.1049805,9.1049805s9.1049805-4.0844727,9.1049805-9.1049805S17.776413,3.6509252,12.7559052,3.6509252z
		 M12.7559052,20.3608856c-4.1933594,0-7.60498-3.4116211-7.60498-7.6049805s3.4116206-7.60498,7.60498-7.60498
		s7.6049805,3.4116206,7.6049805,7.60498S16.9492645,20.3608856,12.7559052,20.3608856z"/>
	<path class="st0" d="M16.4736786,12.1138153h-2.9956055V9.1382294c0-0.4140625-0.3359375-0.75-0.75-0.75s-0.75,0.3359375-0.75,0.75
		v2.9755859H9.0225067c-0.4140625,0-0.75,0.3359375-0.75,0.75s0.3359375,0.75,0.75,0.75h2.9555664v2.9755859
		c0,0.4140625,0.3359375,0.75,0.75,0.75s0.75-0.3359375,0.75-0.75v-2.9755859h2.9956055c0.4140625,0,0.75-0.3359375,0.75-0.75
		S16.8877411,12.1138153,16.4736786,12.1138153z"/>
</g>
</svg>
